<svg width="14" height="16" viewBox="0 0 14 16" fill="none" xmlns="http://www.w3.org/2000/svg">
<path d="M6.99707 0.615234C7.35902 0.615248 7.68278 0.723179 7.96875 0.938477L13.3535 5.01562C13.5555 5.1636 13.7141 5.35176 13.8281 5.58105C13.9428 5.80972 14 6.05259 14 6.30859V15C14 15.2679 13.9004 15.5019 13.7012 15.7012C13.5018 15.9005 13.268 16 13 16H9.11621C8.88697 16 8.69467 15.9231 8.54004 15.7686C8.38541 15.6133 8.30765 15.421 8.30762 15.1924V10.1162H5.69238V15.1924C5.69235 15.4217 5.61459 15.6139 5.45996 15.7686C5.30533 15.9231 5.11334 16 4.88477 16H1C0.732 16 0.498161 15.9005 0.298828 15.7012C0.099573 15.5019 0 15.2679 0 15V6.30859C0 6.05259 0.0572083 5.80972 0.171875 5.58105C0.286538 5.35243 0.445179 5.16458 0.646484 5.0166L6.03125 0.938477C6.31324 0.723164 6.63509 0.615234 6.99707 0.615234ZM7 1.61621C6.85867 1.61621 6.73677 1.66067 6.63477 1.75L1.25 5.80859C1.17345 5.87253 1.11268 5.94576 1.06738 6.02832C1.02205 6.11099 0.999333 6.20459 1 6.30859V15H4.69238V9.92285C4.69247 9.6945 4.76976 9.50316 4.9248 9.34863C5.07947 9.1933 5.27133 9.11523 5.5 9.11523H8.5C8.72867 9.11523 8.92084 9.1933 9.07617 9.34863C9.23056 9.50316 9.30753 9.69449 9.30762 9.92285V15H13V6.30859C13 6.20593 12.9773 6.11232 12.9326 6.02832C12.888 5.94442 12.8272 5.87121 12.75 5.80859L7.36621 1.75C7.26354 1.66067 7.14133 1.61621 7 1.61621Z" fill="#614A3E"/>
<path d="M6.99707 0.615234C7.35902 0.615248 7.68278 0.723179 7.96875 0.938477L13.3535 5.01562C13.5555 5.1636 13.7141 5.35176 13.8281 5.58105C13.9428 5.80972 14 6.05259 14 6.30859V15C14 15.2679 13.9004 15.5019 13.7012 15.7012C13.5018 15.9005 13.268 16 13 16H9.11621C8.88697 16 8.69467 15.9231 8.54004 15.7686C8.38541 15.6133 8.30765 15.421 8.30762 15.1924V10.1162H5.69238V15.1924C5.69235 15.4217 5.61459 15.6139 5.45996 15.7686C5.30533 15.9231 5.11334 16 4.88477 16H1C0.732 16 0.498161 15.9005 0.298828 15.7012C0.099573 15.5019 0 15.2679 0 15V6.30859C0 6.05259 0.0572083 5.80972 0.171875 5.58105C0.286538 5.35243 0.445179 5.16458 0.646484 5.0166L6.03125 0.938477C6.31324 0.723164 6.63509 0.615234 6.99707 0.615234ZM7 1.61621C6.85867 1.61621 6.73677 1.66067 6.63477 1.75L1.25 5.80859C1.17345 5.87253 1.11268 5.94576 1.06738 6.02832C1.02205 6.11099 0.999333 6.20459 1 6.30859V15H4.69238V9.92285C4.69247 9.6945 4.76976 9.50316 4.9248 9.34863C5.07947 9.1933 5.27133 9.11523 5.5 9.11523H8.5C8.72867 9.11523 8.92084 9.1933 9.07617 9.34863C9.23056 9.50316 9.30753 9.69449 9.30762 9.92285V15H13V6.30859C13 6.20593 12.9773 6.11232 12.9326 6.02832C12.888 5.94442 12.8272 5.87121 12.75 5.80859L7.36621 1.75C7.26354 1.66067 7.14133 1.61621 7 1.61621Z" stroke="black"/>
</svg>
